<svg width="100" height="15" viewBox="0 0 100 15" fill="none" xmlns="http://www.w3.org/2000/svg">
<path d="M13.4747 14.3182V4.81553L9.60502 14.3182H7.8775L3.93875 4.81553V14.254H0V0H5.52807L8.77581 7.89747L11.9544 0H17.4825V14.3182H13.4747Z" fill="#343434"/>
<path d="M18.8811 9.51315C18.8811 6.28561 21.4013 4.09088 24.8751 4.09088C27.2591 4.09088 28.6895 5.05914 29.3706 6.02741L27.1229 8.02848C26.7142 7.44752 25.9649 7.06022 25.0795 7.06022C23.6491 7.06022 22.4911 8.02848 22.4911 9.5777C22.4911 11.1269 23.5809 12.0952 25.0795 12.0952C26.033 12.0952 26.7142 11.6433 27.1229 11.0624L29.3706 13.0634C28.6895 13.9672 27.2591 15 24.8751 15C21.4694 15 18.8811 12.7407 18.8811 9.51315Z" fill="#343434"/>
<path d="M45.0123 14.3182V4.81553L41.1426 14.3182H39.4151L35.4764 4.81553V14.254H31.4685V0H36.9966L40.2443 7.89747L43.423 0H48.951V14.3182H45.0123Z" fill="#343434"/>
<path fill-rule="evenodd" clip-rule="evenodd" d="M57.4099 13.7165V14.6791H60.8391V8.19783C60.8391 4.98928 58.4185 4.09088 55.7961 4.09088C54.1151 4.09088 52.2996 4.54008 50.8875 5.69516L52.1651 8.00532C53.0392 7.29944 54.1151 6.91441 55.1909 6.91441C56.603 6.91441 57.4099 7.55612 57.4099 8.45452V9.48126C56.7375 8.7112 55.4599 8.262 54.0478 8.262C52.4341 8.262 50.3496 9.09623 50.3496 11.5989C50.3496 13.9091 52.3668 15 54.0478 15C55.4599 15 56.7375 14.4866 57.4099 13.7165ZM55.4599 10.4438C56.2668 10.4438 57.0737 10.6363 57.4099 11.1497V12.0481C57.0064 12.5615 56.1995 12.8182 55.4599 12.8823C54.5185 12.8823 53.7116 12.4973 53.7116 11.6631C53.7116 10.8288 54.5858 10.4438 55.4599 10.4438Z" fill="#343434"/>
<path d="M69.8537 14.3182L67.4125 10.6584L66.3954 11.8141V14.3182H62.937V0H66.3954V8.09009L69.7181 3.98084H73.9224L69.9215 8.66796L74.1258 14.3182H69.8537Z" fill="#343434"/>
<path d="M74.8252 14.3182V0H78.3217V14.3182H74.8252Z" fill="#343434"/>
<path fill-rule="evenodd" clip-rule="evenodd" d="M85.4152 4.09088C82.0653 4.09088 79.7203 6.47926 79.7203 9.51315C79.7203 12.8698 82.2663 15 85.4822 15C87.0902 15 88.8992 14.5481 89.9712 13.6444L88.4972 11.4497C87.8942 12.0306 86.6212 12.3534 85.8842 12.3534C84.3433 12.3534 83.4723 11.5788 83.2043 10.6751H90.9091V9.90046C90.9091 6.35016 88.6312 4.09088 85.4152 4.09088ZM83.2713 8.35124C83.4053 7.57663 84.0083 6.73747 85.4822 6.73747C87.0232 6.73747 87.6262 7.64118 87.6932 8.35124H83.2713Z" fill="#343434"/>
<path d="M92.3077 14.3182V3.67199H95.8389V4.98634C96.6005 4.13201 97.9852 3.40912 99.3007 3.40912V6.62927C99.093 6.56355 98.8161 6.56355 98.4007 6.56355C97.5006 6.56355 96.2543 6.95786 95.7696 7.54932V14.3182H92.3077Z" fill="#343434"/>
</svg>
